<svg width="24" height="24" viewBox="0 0 24 24" fill="none" xmlns="http://www.w3.org/2000/svg">
<path d="M11.998 2C8.98997 2 7.03997 4.019 4.73397 4.755C3.79597 5.055 3.32697 5.204 3.13697 5.415C2.94697 5.625 2.89197 5.934 2.78097 6.55C1.59097 13.146 4.19097 19.244 10.391 21.618C11.056 21.873 11.389 22 12.001 22C12.613 22 12.947 21.872 13.613 21.617C19.812 19.244 22.409 13.146 21.219 6.55C21.108 5.934 21.052 5.625 20.862 5.414C20.672 5.203 20.204 5.054 19.266 4.755C16.959 4.019 15.006 2 11.998 2Z" stroke="black" stroke-width="1.5" stroke-linecap="round" stroke-linejoin="round"/>
<path d="M10.2499 9.959C10.2499 9.899 10.2579 9.553 10.2599 9.119C10.2599 8.721 10.2259 8.339 10.4159 7.989C11.1259 6.575 13.1659 6.719 13.6699 8.159C13.7569 8.396 13.7629 8.771 13.7599 9.119C13.7569 9.562 13.7659 9.959 13.7659 9.959M10.3369 10.38C9.25689 10.38 8.71689 11.16 8.59689 11.64C8.47689 12.12 8.47689 13.86 8.54889 14.58C8.78889 15.48 9.38889 15.852 9.97689 15.972C10.5169 16.02 12.7969 16.002 13.4569 16.002C14.4169 16.02 15.1369 15.66 15.4369 14.58C15.4969 14.22 15.5569 12.24 15.4069 11.64C15.0889 10.68 14.2969 10.38 13.6969 10.38H10.3369Z" stroke="black" stroke-width="1.5" stroke-linecap="round" stroke-linejoin="round"/>
</svg>
