<svg width="24" height="24" viewBox="0 0 24 24" fill="none" xmlns="http://www.w3.org/2000/svg">
<path d="M11.6002 6.2899L12 6.82243L12.3998 6.2899C13.3554 5.01723 14.8975 4.25008 16.6872 4.25C18.0957 4.25166 19.4461 4.81193 20.4421 5.80791C21.4381 6.80396 21.9984 8.15444 22 9.56306C21.9997 12.6101 19.7233 15.4491 17.2536 17.6119C14.8102 19.7517 12.3116 21.1136 12.1214 21.2143L12.1184 21.2159C12.082 21.2355 12.0413 21.2458 12 21.2458C11.9587 21.2458 11.918 21.2355 11.8816 21.2159L11.8786 21.2144C11.6884 21.1136 9.18979 19.7517 6.74637 17.6119C4.27664 15.449 2.00014 12.61 2 9.56277C2.00166 8.15425 2.56193 6.80389 3.55791 5.80791C4.55389 4.81193 5.90425 4.25166 7.31277 4.25C9.10248 4.25008 10.6446 5.01723 11.6002 6.2899ZM11.7483 20.5695L12.0003 20.7163L12.2521 20.5693C13.1201 20.0625 15.4061 18.6537 17.4815 16.7267C19.5316 14.8231 21.5 12.3008 21.5 9.5625V9.56185C21.4983 8.28618 20.9908 7.06323 20.0888 6.16119C19.1868 5.25916 17.9638 4.75166 16.6882 4.75H16.6875C14.6829 4.75 12.9554 5.82172 12.2311 7.59159C12.2123 7.63731 12.1803 7.6764 12.1392 7.70394L12.4176 8.11926L12.1392 7.70394C12.098 7.73154 12.0496 7.74627 12 7.74627C11.9504 7.74627 11.902 7.73154 11.8608 7.70394L11.5824 8.11926L11.8608 7.70394C11.8196 7.67634 11.7876 7.63712 11.7688 7.59127C11.0446 5.82488 9.31753 4.75 7.3125 4.75L7.31185 4.75C6.03618 4.75166 4.81323 5.25916 3.91119 6.16119C3.00916 7.06323 2.50166 8.28618 2.5 9.56185V9.5625C2.5 12.3045 4.46772 14.8269 6.51789 16.7299C8.59309 18.6562 10.8792 20.0631 11.7483 20.5695Z" stroke="black"/>
</svg>
