<svg width="20" height="22" viewBox="0 0 20 22" fill="none" xmlns="http://www.w3.org/2000/svg">
<path d="M18.04 11.63C18.18 11.63 18.31 11.69 18.42 11.8L19.7 13.08C19.92 13.29 19.92 13.64 19.7 13.85L18.7 14.85L16.65 12.8L17.65 11.8C17.76 11.69 17.9 11.63 18.04 11.63ZM16.07 13.38L18.12 15.43L12.06 21.5H10V19.44L16.07 13.38ZM16 2.5C17.1 2.5 18 3.4 18 4.5V8.5L8 18.5V20.5H2C0.9 20.5 0 19.6 0 18.5V4.5C0 3.4 0.9 2.5 2 2.5H6.18C6.6 1.34 7.7 0.5 9 0.5C10.3 0.5 11.4 1.34 11.82 2.5H16ZM9 2.5C8.45 2.5 8 2.95 8 3.5C8 4.05 8.45 4.5 9 4.5C9.55 4.5 10 4.05 10 3.5C10 2.95 9.55 2.5 9 2.5Z" fill="black"/>
</svg>
