<svg width="23" height="23" viewBox="0 0 23 23" fill="none" xmlns="http://www.w3.org/2000/svg">
<path fill-rule="evenodd" clip-rule="evenodd" d="M12.8697 2C12.8697 1.17157 12.1981 0.5 11.3697 0.5C10.5413 0.5 9.86969 1.17157 9.86969 2V9.82745H2C1.17157 9.82745 0.5 10.499 0.5 11.3275C0.5 12.1559 1.17157 12.8275 2 12.8275H9.86969V20.6548C9.86969 21.4833 10.5413 22.1548 11.3697 22.1548C12.1981 22.1548 12.8697 21.4833 12.8697 20.6548V12.8275H20.7396C21.568 12.8275 22.2396 12.1559 22.2396 11.3275C22.2396 10.499 21.568 9.82745 20.7396 9.82745H12.8697V2Z" fill="black"/>
</svg>
