<svg width="25" height="24" viewBox="0 0 25 24" fill="none" xmlns="http://www.w3.org/2000/svg">
<path d="M23 9.5625C23 16.125 13.2697 21.4369 12.8553 21.6562C12.7461 21.715 12.624 21.7458 12.5 21.7458C12.376 21.7458 12.2539 21.715 12.1447 21.6562C11.7303 21.4369 2 16.125 2 9.5625C2.00174 8.02146 2.61468 6.54404 3.70436 5.45436C4.79404 4.36468 6.27146 3.75174 7.8125 3.75C9.74844 3.75 11.4434 4.5825 12.5 5.98969C13.5566 4.5825 15.2516 3.75 17.1875 3.75C18.7285 3.75174 20.206 4.36468 21.2956 5.45436C22.3853 6.54404 22.9983 8.02146 23 9.5625Z" fill="black"/>
</svg>
