<svg width="24" height="24" viewBox="0 0 24 24" fill="none" xmlns="http://www.w3.org/2000/svg">
<path d="M22.1475 10.1025L14.6475 2.60249C14.5688 2.52393 14.4686 2.47043 14.3596 2.44877C14.2505 2.42711 14.1375 2.43825 14.0348 2.48078C13.9321 2.52331 13.8443 2.59533 13.7824 2.68774C13.7206 2.78016 13.6876 2.88881 13.6875 2.99999V6.95624C8.57999 7.29281 2.40092 12.1125 1.69405 18.2681C1.67109 18.4641 1.71058 18.6624 1.80688 18.8346C1.90318 19.0069 2.05138 19.1444 2.23038 19.2275C2.40937 19.3106 2.61003 19.3351 2.80377 19.2975C2.99751 19.2599 3.17444 19.1621 3.30936 19.0181C4.36499 17.8922 8.15624 14.3062 13.6875 14.0747V18C13.6876 18.1112 13.7206 18.2198 13.7824 18.3122C13.8443 18.4047 13.9321 18.4767 14.0348 18.5192C14.1375 18.5617 14.2505 18.5729 14.3596 18.5512C14.4686 18.5296 14.5688 18.4761 14.6475 18.3975L22.1475 10.8975C22.2528 10.792 22.312 10.6491 22.312 10.5C22.312 10.3509 22.2528 10.208 22.1475 10.1025ZM14.8125 16.6425V13.5C14.8125 13.3508 14.7532 13.2077 14.6477 13.1022C14.5422 12.9968 14.3992 12.9375 14.25 12.9375C11.6503 12.9375 9.11624 13.6172 6.71999 14.9578C5.32334 15.7424 4.03682 16.7086 2.89405 17.8312C3.33467 15.3412 4.78405 12.9562 7.01905 11.0559C9.23155 9.18187 11.9334 8.06249 14.25 8.06249C14.3992 8.06249 14.5422 8.00323 14.6477 7.89774C14.7532 7.79225 14.8125 7.64918 14.8125 7.49999V4.35843L20.954 10.5L14.8125 16.6425Z" fill="black"/>
</svg>
