<svg width="24" height="24" viewBox="0 0 24 24" fill="none" xmlns="http://www.w3.org/2000/svg">
<path d="M7.5 1.5C7.69891 1.5 7.88968 1.57902 8.03033 1.71967C8.17098 1.86032 8.25 2.05109 8.25 2.25V3H11.25V2.25C11.25 2.05109 11.329 1.86032 11.4697 1.71967C11.6103 1.57902 11.8011 1.5 12 1.5C12.1989 1.5 12.3897 1.57902 12.5303 1.71967C12.671 1.86032 12.75 2.05109 12.75 2.25V3H15.75V2.25C15.75 2.05109 15.829 1.86032 15.9697 1.71967C16.1103 1.57902 16.3011 1.5 16.5 1.5C16.6989 1.5 16.8897 1.57902 17.0303 1.71967C17.171 1.86032 17.25 2.05109 17.25 2.25V3C17.8467 3 18.419 3.23705 18.841 3.65901C19.2629 4.08097 19.5 4.65326 19.5 5.25V9.054C18.9623 9.14765 18.4508 9.3553 18 9.663V5.25C18 5.05109 17.921 4.86032 17.7803 4.71967C17.6397 4.57902 17.4489 4.5 17.25 4.5H6.75C6.55109 4.5 6.36032 4.57902 6.21967 4.71967C6.07902 4.86032 6 5.05109 6 5.25V20.25C6 20.4489 6.07902 20.6397 6.21967 20.7803C6.36032 20.921 6.55109 21 6.75 21H9.0705V21.003C8.94363 21.5001 8.97938 22.0247 9.1725 22.5H6.75C6.15326 22.5 5.58097 22.2629 5.15901 21.841C4.73705 21.419 4.5 20.8467 4.5 20.25V5.25C4.5 4.65326 4.73705 4.08097 5.15901 3.65901C5.58097 3.23705 6.15326 3 6.75 3V2.25C6.75 2.05109 6.82902 1.86032 6.96967 1.71967C7.11032 1.57902 7.30109 1.5 7.5 1.5ZM15 12C15.1605 12 15.309 12.051 15.432 12.1365L14.067 13.5H9C8.80109 13.5 8.61032 13.421 8.46967 13.2803C8.32902 13.1397 8.25 12.9489 8.25 12.75C8.25 12.5511 8.32902 12.3603 8.46967 12.2197C8.61032 12.079 8.80109 12 9 12H15ZM10.494 17.1525C10.4703 16.972 10.3818 16.8062 10.2449 16.6861C10.108 16.5661 9.93209 16.4999 9.75 16.5H9C8.80109 16.5 8.61032 16.579 8.46967 16.7197C8.32902 16.8603 8.25 17.0511 8.25 17.25C8.25 17.4489 8.32902 17.6397 8.46967 17.7803C8.61032 17.921 8.80109 18 9 18H9.75C9.83 18.0001 9.9095 17.9875 9.9855 17.9625C10.1315 17.6785 10.301 17.4085 10.494 17.1525ZM9 7.5C8.80109 7.5 8.61032 7.57902 8.46967 7.71967C8.32902 7.86032 8.25 8.05109 8.25 8.25C8.25 8.44891 8.32902 8.63968 8.46967 8.78033C8.61032 8.92098 8.80109 9 9 9H15C15.1989 9 15.3897 8.92098 15.5303 8.78033C15.671 8.63968 15.75 8.44891 15.75 8.25C15.75 8.05109 15.671 7.86032 15.5303 7.71967C15.3897 7.57902 15.1989 7.5 15 7.5H9ZM18.507 11.1825C18.946 10.7435 19.5414 10.4969 20.1623 10.4969C20.7831 10.4969 21.3785 10.7435 21.8175 11.1825C22.2565 11.6215 22.5031 12.2169 22.5031 12.8377C22.5031 13.4586 22.2565 14.054 21.8175 14.493L15.384 20.925C14.8493 21.4577 14.1808 21.8365 13.449 22.0215L11.6325 22.476C11.4791 22.5144 11.3184 22.5125 11.1661 22.4703C11.0137 22.4282 10.8748 22.3472 10.763 22.2355C10.6513 22.1237 10.5703 21.9848 10.5282 21.8324C10.486 21.6801 10.4841 21.5194 10.5225 21.366L10.9785 19.551C11.1615 18.8175 11.5395 18.1485 12.0735 17.616L18.507 11.1825Z" fill="black"/>
</svg>
